<svg xmlns="http://www.w3.org/2000/svg" width="81.559" height="85.438" viewBox="0 0 81.559 85.438">
  <g id="Group_6322" data-name="Group 6322" transform="translate(-135.17 -111.574)">
    <path id="Path_4805" data-name="Path 4805" d="M80.2,17.79C60.335,17.79,51.581,9.742,43.657.777,43.63.746,43.6.722,43.569.693S43.516.631,43.486.6s-.042-.028-.063-.045a1.882,1.882,0,0,0-.169-.121C43.2.4,43.149.37,43.1.341s-.121-.057-.183-.082A1.723,1.723,0,0,0,42.738.2a1.94,1.94,0,0,0-.193-.045c-.059-.011-.117-.022-.177-.028s-.136-.007-.2-.007-.115,0-.173.005a1.831,1.831,0,0,0-.2.033c-.057.011-.112.022-.169.038a1.753,1.753,0,0,0-.191.07c-.057.024-.113.047-.169.077a1.668,1.668,0,0,0-.165.1,1.831,1.831,0,0,0-.166.12c-.02.017-.044.028-.062.045s-.054.061-.083.09-.062.053-.09.083C32.769,9.742,24.011,17.79,4.152,17.79a1.978,1.978,0,0,0-1.979,1.979c0,36.136,20.265,57.6,39.23,65.629a1.287,1.287,0,0,0,.139.042c.045.016.087.029.133.041a1.966,1.966,0,0,0,.5.074h0a1.909,1.909,0,0,0,.5-.074c.046-.012.088-.026.135-.041s.092-.024.137-.042c18.965-8.033,39.23-29.492,39.23-65.629A1.974,1.974,0,0,0,80.2,17.79ZM57.148,32.84,41.485,55.1a2.021,2.021,0,0,1-.219.243c-.017.017-.024.041-.041.058s-.02.011-.028.017a1.975,1.975,0,0,1-.557.355c-.046.02-.09.033-.137.049a1.922,1.922,0,0,1-.632.119H39.86a1.889,1.889,0,0,1-.513-.078c-.042-.012-.083-.025-.124-.038a1.956,1.956,0,0,1-.488-.241l-.005,0a2.063,2.063,0,0,1-.306-.266l-11.04-11.7A1.978,1.978,0,1,1,30.261,40.9l9.383,9.944L53.914,30.565a1.977,1.977,0,1,1,3.234,2.275Z" transform="translate(132.997 111.457)" fill="#007ff3"/>
    <rect id="Rectangle_1193" data-name="Rectangle 1193" width="38.628" height="32.006" transform="translate(156.14 138.463)" fill="#007ff3"/>
    <g id="Group_6320" data-name="Group 6320" transform="translate(163.865 135.599)">
      <g id="Group_6317" data-name="Group 6317" transform="translate(0 0)">
        <g id="Group_6316" data-name="Group 6316">
          <path id="Path_4806" data-name="Path 4806" d="M264.6,112.962a2.3,2.3,0,0,1-.022.3c.022-.151.043-.306.06-.458a2.506,2.506,0,0,1-.151.561c.056-.138.117-.276.173-.414a2.635,2.635,0,0,1-.281.492l.272-.35a2.453,2.453,0,0,1-.436.436l.35-.272a2.414,2.414,0,0,1-.492.281c.138-.056.276-.117.414-.173a2.507,2.507,0,0,1-.561.151c.151-.022.306-.043.458-.06a14.25,14.25,0,0,1-1.718.022H250.745c-.591,0-1.178,0-1.77,0a2.5,2.5,0,0,1-.311-.022c.151.022.306.043.458.06a2.506,2.506,0,0,1-.561-.151c.138.056.276.117.414.173a2.635,2.635,0,0,1-.492-.281l.35.272a2.453,2.453,0,0,1-.436-.436l.272.35a2.413,2.413,0,0,1-.281-.492c.056.138.117.276.173.414a2.508,2.508,0,0,1-.151-.561c.022.151.043.306.06.458a8.979,8.979,0,0,1-.022-1.023V83.6a2.873,2.873,0,0,1,.022-.332c-.022.151-.043.306-.06.458a2.508,2.508,0,0,1,.151-.561c-.056.138-.117.276-.173.414a2.633,2.633,0,0,1,.281-.492l-.272.35a2.451,2.451,0,0,1,.436-.436l-.35.272a2.414,2.414,0,0,1,.492-.281c-.138.056-.276.117-.414.173a2.507,2.507,0,0,1,.561-.151c-.151.022-.306.043-.458.06a14.25,14.25,0,0,1,1.718-.022H262.3c.591,0,1.178,0,1.77,0a2.509,2.509,0,0,1,.311.022c-.151-.022-.306-.043-.458-.06a2.508,2.508,0,0,1,.561.151c-.138-.056-.276-.117-.414-.173a2.637,2.637,0,0,1,.492.281l-.35-.272a2.451,2.451,0,0,1,.436.436l-.272-.35a2.412,2.412,0,0,1,.281.492c-.056-.138-.117-.276-.173-.414a2.507,2.507,0,0,1,.151.561c-.022-.151-.043-.306-.06-.458a8.814,8.814,0,0,1,.022,1.014v27.465c0,.388,0,.773,0,1.161v.056a1.727,1.727,0,1,0,3.453,0V83.675a4.035,4.035,0,0,0-2.033-3.57,4.157,4.157,0,0,0-2-.505H248.993a3.969,3.969,0,0,0-2.426.824A4.064,4.064,0,0,0,245,83.718V112.5a7.784,7.784,0,0,0,.082,1.222,3.884,3.884,0,0,0,2,2.732,4.277,4.277,0,0,0,1.955.479c1.407,0,2.814,0,4.221,0h6.854c1.312,0,2.629.013,3.941,0a3.916,3.916,0,0,0,2.245-.691,4.051,4.051,0,0,0,1.269-1.394,4.215,4.215,0,0,0,.479-1.886,1.724,1.724,0,1,0-3.449,0Z" transform="translate(-245 -79.6)" fill="#fff"/>
        </g>
      </g>
      <g id="Group_6319" data-name="Group 6319" transform="translate(8.303 28.579)">
        <g id="Group_6318" data-name="Group 6318">
          <path id="Path_4807" data-name="Path 4807" d="M439.092,745.153h2.991a1.727,1.727,0,0,0,0-3.453h-2.991a1.727,1.727,0,1,0,0,3.453Z" transform="translate(-437.364 -741.7)" fill="#fff"/>
        </g>
      </g>
    </g>
    <g id="Group_6321" data-name="Group 6321" transform="translate(190.353 167.214)">
      <ellipse id="Ellipse_588" data-name="Ellipse 588" cx="11.5" cy="11" rx="11.5" ry="11" transform="translate(0.647 1.786)" fill="#fff"/>
      <path id="Path_4808" data-name="Path 4808" d="M13.188,0A13.188,13.188,0,1,0,26.376,13.188,13.188,13.188,0,0,0,13.188,0ZM10.532,19.526,5.476,14.1l2.313-2.16L10.6,14.961l8.05-8.108L20.9,9.084Z" transform="translate(0)" fill="#0ac4a8"/>
    </g>
  </g>
</svg>
