<svg xmlns="http://www.w3.org/2000/svg" width="85.222" height="86.024" viewBox="0 0 85.222 86.024"><defs><style>.a{fill:#fff;}.b{fill:#2680eb;}.c{fill:#060606;}</style></defs><g transform="translate(-137.389 -305.976)"><circle class="a" cx="22" cy="22" r="22" transform="translate(149 344)"/><g transform="translate(130 298.988)"><path class="b" d="M88.991,18.018,16.4,18.01A2.506,2.506,0,1,1,16.4,13l63.114-.01a3,3,0,0,0,0-6H14.389a7.009,7.009,0,0,0-7,7V77.113a3.62,3.62,0,0,0,3.62,3.62H18.7a26.384,26.384,0,0,0,44.594,0H88.991a3.62,3.62,0,0,0,3.62-3.62V21.639A3.62,3.62,0,0,0,88.991,18.018ZM41,88.012A21.437,21.437,0,0,1,19.586,66.6a21.725,21.725,0,0,1,.165-2.664A21.415,21.415,0,1,1,41,88.012ZM87.074,42.479H67.465a6.712,6.712,0,0,1,0-13.424H87.074ZM65.251,35.768a2.877,2.877,0,1,0,2.877-2.877A2.877,2.877,0,0,0,65.251,35.768Z"/></g><g transform="translate(386.825 -3590.959)"><path class="c" d="M-222.423,3967.435v-4.907l5.6,4.907-5.6,4.908Z" transform="translate(0 -10.476)"/><path class="c" d="M-222.423,3968.519v-4.689l7.852-6.871-7.852-6.871V3945.4l13.2,11.56Z" transform="translate(0 0)"/></g></g></svg>